<svg width="18" height="19" viewBox="0 0 18 19" fill="none" xmlns="http://www.w3.org/2000/svg">
<path d="M18.0003 9.82131C18.0003 8.60181 17.4648 7.45131 16.5565 6.72831C16.6615 5.51181 16.2265 4.32006 15.364 3.45681C14.5015 2.59506 13.3128 2.16081 12.1563 2.29056C10.6458 0.373563 7.38254 0.337563 5.90729 2.26431C4.68929 2.15631 3.49904 2.59356 2.63654 3.45681C1.77479 4.31931 1.33979 5.51181 1.47029 6.66456C-0.44671 8.17506 -0.48346 11.4383 1.44404 12.9143C1.33904 14.1308 1.77404 15.3226 2.63654 16.1858C3.49904 17.0476 4.68929 17.4833 5.84429 17.3521C7.35479 19.2691 10.618 19.3051 12.0933 17.3783C13.3083 17.4803 14.5008 17.0491 15.364 16.1858C16.2258 15.3233 16.6608 14.1308 16.5303 12.9781C17.4648 12.1921 18.0003 11.0416 18.0003 9.82206V9.82131ZM13.1553 8.74581L9.60104 12.1718C8.72879 13.0426 7.30154 13.0351 6.42929 12.1621L4.74029 10.5931C4.43729 10.3111 4.41929 9.83631 4.70129 9.53331C4.98404 9.22956 5.45954 9.21306 5.76104 9.49431L7.46954 11.0821C7.78304 11.3948 8.25704 11.3941 8.54954 11.1008L12.1135 7.66506C12.412 7.37856 12.8868 7.38681 13.174 7.68456C13.462 7.98231 13.453 8.45781 13.1553 8.74506V8.74581Z" fill="#01BA77"/>
</svg>
